<?xml version="1.0" encoding="UTF-8"?>
<svg xmlns="http://www.w3.org/2000/svg" xmlns:xlink="http://www.w3.org/1999/xlink" width="48pt" height="48pt" viewBox="0 0 48 48" version="1.1">
<g id="surface1758189">
<path style="fill-rule:nonzero;fill:rgb(100%,74.117647%,0%);fill-opacity:1;stroke-width:40;stroke-linecap:butt;stroke-linejoin:round;stroke:rgb(100%,74.117647%,0%);stroke-opacity:1;stroke-miterlimit:10;" d="M 157.661144 86 C 157.661144 125.575868 125.575868 157.661144 86 157.661144 C 46.424132 157.661144 14.338856 125.575868 14.338856 86 C 14.338856 46.424132 46.424132 14.338856 86 14.338856 C 125.575868 14.338856 157.661144 46.424132 157.661144 86 Z M 157.661144 86 " transform="matrix(0.226326,0,0,0.226326,4.536,4.536)"/>
<path style="fill-rule:nonzero;fill:rgb(87.843137%,96.862745%,98.039216%);fill-opacity:1;stroke-width:40;stroke-linecap:butt;stroke-linejoin:round;stroke:rgb(100%,74.117647%,0%);stroke-opacity:1;stroke-miterlimit:10;" d="M 143.335819 86 C 143.335819 117.67105 117.67105 143.335819 86 143.335819 C 54.32895 143.335819 28.664181 117.67105 28.664181 86 C 28.664181 54.32895 54.32895 28.664181 86 28.664181 C 117.67105 28.664181 143.335819 54.32895 143.335819 86 Z M 143.335819 86 " transform="matrix(0.226326,0,0,0.226326,4.536,4.536)"/>
<path style=" stroke:none;fill-rule:nonzero;fill:rgb(100%,74.117647%,0%);fill-opacity:1;" d="M 24 7.78125 C 15.042969 7.78125 7.78125 15.042969 7.78125 24 C 7.78125 32.957031 15.042969 40.21875 24 40.21875 C 32.957031 40.21875 40.21875 32.957031 40.21875 24 C 40.21875 15.042969 32.957031 7.78125 24 7.78125 Z M 24 7.78125 "/>
<path style=" stroke:none;fill-rule:nonzero;fill:rgb(100%,32.941176%,0%);fill-opacity:1;" d="M 24 11.023438 C 16.832031 11.023438 11.023438 16.832031 11.023438 24 C 11.023438 31.167969 16.832031 36.976562 24 36.976562 C 31.167969 36.976562 36.976562 31.167969 36.976562 24 C 36.976562 16.832031 31.167969 11.023438 24 11.023438 Z M 24 11.023438 "/>
</g>
</svg>
